<mxfile host="app.diagrams.net" modified="2023-05-22T13:38:26.231Z" agent="Mozilla/5.0 (Windows NT 10.0; Win64; x64) AppleWebKit/537.36 (KHTML, like Gecko) Chrome/113.0.0.0 Safari/537.36" etag="RfHkvTfensZWHuBIATFp" version="21.3.2" type="device">
  <diagram id="R2lEEEUBdFMjLlhIrx00" name="Page-1">
    <mxGraphModel dx="2625" dy="1453" grid="1" gridSize="10" guides="1" tooltips="1" connect="1" arrows="1" fold="1" page="1" pageScale="1" pageWidth="850" pageHeight="1100" math="0" shadow="0" extFonts="Permanent Marker^https://fonts.googleapis.com/css?family=Permanent+Marker">
      <root>
        <mxCell id="0" />
        <mxCell id="1" parent="0" />
        <mxCell id="JtXq3w6JuJcBuTQ-EOH--6" value="" style="group" vertex="1" connectable="0" parent="1">
          <mxGeometry x="474.87" y="670" width="68" height="110" as="geometry" />
        </mxCell>
        <mxCell id="JtXq3w6JuJcBuTQ-EOH--3" value="" style="image;aspect=fixed;html=1;points=[];align=center;fontSize=12;image=img/lib/azure2/databases/Data_Factory.svg;" vertex="1" parent="JtXq3w6JuJcBuTQ-EOH--6">
          <mxGeometry width="68" height="68" as="geometry" />
        </mxCell>
        <mxCell id="JtXq3w6JuJcBuTQ-EOH--5" value="WEAPON FACTORY" style="text;html=1;strokeColor=none;fillColor=none;align=center;verticalAlign=middle;whiteSpace=wrap;rounded=0;" vertex="1" parent="JtXq3w6JuJcBuTQ-EOH--6">
          <mxGeometry y="80" width="60" height="30" as="geometry" />
        </mxCell>
        <mxCell id="JtXq3w6JuJcBuTQ-EOH--7" value="" style="group" vertex="1" connectable="0" parent="1">
          <mxGeometry x="377.87" y="670" width="68" height="110" as="geometry" />
        </mxCell>
        <mxCell id="JtXq3w6JuJcBuTQ-EOH--2" value="" style="image;aspect=fixed;html=1;points=[];align=center;fontSize=12;image=img/lib/azure2/databases/Data_Factory.svg;" vertex="1" parent="JtXq3w6JuJcBuTQ-EOH--7">
          <mxGeometry width="68" height="68" as="geometry" />
        </mxCell>
        <mxCell id="JtXq3w6JuJcBuTQ-EOH--4" value="CHARACTER FACTORY" style="text;html=1;strokeColor=none;fillColor=none;align=center;verticalAlign=middle;whiteSpace=wrap;rounded=0;" vertex="1" parent="JtXq3w6JuJcBuTQ-EOH--7">
          <mxGeometry y="80" width="60" height="30" as="geometry" />
        </mxCell>
        <mxCell id="JtXq3w6JuJcBuTQ-EOH--8" value="EnnemiSpawner" style="text;html=1;strokeColor=none;fillColor=none;align=center;verticalAlign=middle;whiteSpace=wrap;rounded=0;" vertex="1" parent="1">
          <mxGeometry x="492.51" y="620" width="60" height="30" as="geometry" />
        </mxCell>
        <mxCell id="JtXq3w6JuJcBuTQ-EOH--15" value="" style="image;sketch=0;aspect=fixed;html=1;points=[];align=center;fontSize=12;image=img/lib/mscae/Service_Bus_Relay.svg;" vertex="1" parent="1">
          <mxGeometry x="497.51" y="570" width="50" height="50" as="geometry" />
        </mxCell>
        <mxCell id="JtXq3w6JuJcBuTQ-EOH--17" value="" style="image;sketch=0;aspect=fixed;html=1;points=[];align=center;fontSize=12;image=img/lib/mscae/Service_Bus_Relay.svg;" vertex="1" parent="1">
          <mxGeometry x="341.87" y="570" width="50" height="50" as="geometry" />
        </mxCell>
        <mxCell id="JtXq3w6JuJcBuTQ-EOH--18" value="PlayerSpawner" style="text;html=1;strokeColor=none;fillColor=none;align=center;verticalAlign=middle;whiteSpace=wrap;rounded=0;" vertex="1" parent="1">
          <mxGeometry x="336.87" y="620" width="60" height="30" as="geometry" />
        </mxCell>
        <mxCell id="JtXq3w6JuJcBuTQ-EOH--21" value="" style="sketch=0;outlineConnect=0;fontColor=#ffffff;fillColor=#d80073;strokeColor=#A50040;dashed=0;verticalLabelPosition=bottom;verticalAlign=top;align=center;html=1;fontSize=12;fontStyle=0;aspect=fixed;pointerEvents=1;shape=mxgraph.aws4.organizations_account;" vertex="1" parent="1">
          <mxGeometry x="327.19" y="829.2700000000001" width="74" height="78" as="geometry" />
        </mxCell>
        <mxCell id="JtXq3w6JuJcBuTQ-EOH--24" value="" style="sketch=0;outlineConnect=0;fontColor=#ffffff;fillColor=#d80073;strokeColor=#A50040;dashed=0;verticalLabelPosition=bottom;verticalAlign=top;align=center;html=1;fontSize=12;fontStyle=0;aspect=fixed;pointerEvents=1;shape=mxgraph.aws4.organizations_account;" vertex="1" parent="1">
          <mxGeometry x="529.73" y="823.1500000000001" width="41.27" height="43.5" as="geometry" />
        </mxCell>
        <mxCell id="JtXq3w6JuJcBuTQ-EOH--25" value="" style="sketch=0;outlineConnect=0;fontColor=#ffffff;fillColor=#d80073;strokeColor=#A50040;dashed=0;verticalLabelPosition=bottom;verticalAlign=top;align=center;html=1;fontSize=12;fontStyle=0;aspect=fixed;pointerEvents=1;shape=mxgraph.aws4.organizations_account;" vertex="1" parent="1">
          <mxGeometry x="589.73" y="823.1500000000001" width="41.27" height="43.5" as="geometry" />
        </mxCell>
        <mxCell id="JtXq3w6JuJcBuTQ-EOH--26" value="" style="sketch=0;outlineConnect=0;fontColor=#ffffff;fillColor=#d80073;strokeColor=#A50040;dashed=0;verticalLabelPosition=bottom;verticalAlign=top;align=center;html=1;fontSize=12;fontStyle=0;aspect=fixed;pointerEvents=1;shape=mxgraph.aws4.organizations_account;" vertex="1" parent="1">
          <mxGeometry x="559.73" y="869.9000000000001" width="41.27" height="43.5" as="geometry" />
        </mxCell>
        <mxCell id="JtXq3w6JuJcBuTQ-EOH--27" value="" style="image;sketch=0;aspect=fixed;html=1;points=[];align=center;fontSize=12;image=img/lib/mscae/Service_Bus_Relay.svg;" vertex="1" parent="1">
          <mxGeometry x="420.87" y="450" width="50" height="50" as="geometry" />
        </mxCell>
        <mxCell id="JtXq3w6JuJcBuTQ-EOH--28" value="LEVELMANAGER" style="text;html=1;strokeColor=none;fillColor=none;align=center;verticalAlign=middle;whiteSpace=wrap;rounded=0;" vertex="1" parent="1">
          <mxGeometry x="415.87" y="500" width="60" height="30" as="geometry" />
        </mxCell>
        <mxCell id="JtXq3w6JuJcBuTQ-EOH--35" value="" style="group" vertex="1" connectable="0" parent="1">
          <mxGeometry x="425" y="530" width="30" height="40" as="geometry" />
        </mxCell>
        <mxCell id="JtXq3w6JuJcBuTQ-EOH--33" value="" style="verticalLabelPosition=bottom;html=1;verticalAlign=top;align=center;strokeColor=none;fillColor=#00BEF2;shape=mxgraph.azure.cloud_services_configuration_file;pointerEvents=1;" vertex="1" parent="JtXq3w6JuJcBuTQ-EOH--35">
          <mxGeometry x="3.125" width="23.75" height="25" as="geometry" />
        </mxCell>
        <mxCell id="JtXq3w6JuJcBuTQ-EOH--34" value="&lt;font style=&quot;font-size: 8px;&quot;&gt;LEVELCONFIGS&lt;/font&gt;" style="text;html=1;strokeColor=none;fillColor=none;align=center;verticalAlign=middle;whiteSpace=wrap;rounded=0;" vertex="1" parent="JtXq3w6JuJcBuTQ-EOH--35">
          <mxGeometry y="25" width="30" height="15" as="geometry" />
        </mxCell>
        <mxCell id="JtXq3w6JuJcBuTQ-EOH--46" value="MAIN.LUA" style="text;html=1;align=center;verticalAlign=middle;resizable=0;points=[];autosize=1;strokeColor=none;fillColor=none;" vertex="1" parent="1">
          <mxGeometry x="409" y="260" width="80" height="30" as="geometry" />
        </mxCell>
        <mxCell id="JtXq3w6JuJcBuTQ-EOH--47" value="GAMEMANAGER" style="text;html=1;align=center;verticalAlign=middle;resizable=0;points=[];autosize=1;strokeColor=none;fillColor=none;" vertex="1" parent="1">
          <mxGeometry x="389" y="300" width="120" height="30" as="geometry" />
        </mxCell>
        <mxCell id="JtXq3w6JuJcBuTQ-EOH--48" value="" style="verticalLabelPosition=bottom;html=1;verticalAlign=top;align=center;strokeColor=none;fillColor=#00BEF2;shape=mxgraph.azure.cloud_services_configuration_file;pointerEvents=1;" vertex="1" parent="1">
          <mxGeometry x="538.125" y="295" width="23.75" height="25" as="geometry" />
        </mxCell>
        <mxCell id="JtXq3w6JuJcBuTQ-EOH--49" value="&lt;font style=&quot;font-size: 8px;&quot;&gt;GAMESTATE&lt;/font&gt;" style="text;html=1;strokeColor=none;fillColor=none;align=center;verticalAlign=middle;whiteSpace=wrap;rounded=0;" vertex="1" parent="1">
          <mxGeometry x="535" y="325" width="30" height="10" as="geometry" />
        </mxCell>
        <mxCell id="JtXq3w6JuJcBuTQ-EOH--51" value="START SCENE" style="text;html=1;align=center;verticalAlign=middle;resizable=0;points=[];autosize=1;strokeColor=none;fillColor=none;" vertex="1" parent="1">
          <mxGeometry x="10" y="400" width="110" height="30" as="geometry" />
        </mxCell>
        <mxCell id="JtXq3w6JuJcBuTQ-EOH--52" value="NARRATIVE SCENE" style="text;html=1;align=center;verticalAlign=middle;resizable=0;points=[];autosize=1;strokeColor=none;fillColor=none;" vertex="1" parent="1">
          <mxGeometry x="130" y="400" width="140" height="30" as="geometry" />
        </mxCell>
        <mxCell id="JtXq3w6JuJcBuTQ-EOH--53" value="MENU SCENE" style="text;html=1;align=center;verticalAlign=middle;resizable=0;points=[];autosize=1;strokeColor=none;fillColor=none;" vertex="1" parent="1">
          <mxGeometry x="280" y="400" width="100" height="30" as="geometry" />
        </mxCell>
        <mxCell id="JtXq3w6JuJcBuTQ-EOH--54" value="GAMESCENE" style="text;html=1;align=center;verticalAlign=middle;resizable=0;points=[];autosize=1;strokeColor=none;fillColor=none;" vertex="1" parent="1">
          <mxGeometry x="405" y="400" width="100" height="30" as="geometry" />
        </mxCell>
        <mxCell id="JtXq3w6JuJcBuTQ-EOH--55" value="GAMEOVER SCENE" style="text;html=1;align=center;verticalAlign=middle;resizable=0;points=[];autosize=1;strokeColor=none;fillColor=none;" vertex="1" parent="1">
          <mxGeometry x="535" y="400" width="140" height="30" as="geometry" />
        </mxCell>
        <mxCell id="JtXq3w6JuJcBuTQ-EOH--56" value="WIN SCENE" style="text;html=1;align=center;verticalAlign=middle;resizable=0;points=[];autosize=1;strokeColor=none;fillColor=none;" vertex="1" parent="1">
          <mxGeometry x="700" y="400" width="90" height="30" as="geometry" />
        </mxCell>
        <mxCell id="JtXq3w6JuJcBuTQ-EOH--58" value="" style="verticalLabelPosition=bottom;html=1;verticalAlign=top;align=center;strokeColor=none;fillColor=#00BEF2;shape=mxgraph.azure.cloud_services_configuration_file;pointerEvents=1;" vertex="1" parent="1">
          <mxGeometry x="95.625" y="500" width="23.75" height="25" as="geometry" />
        </mxCell>
        <mxCell id="JtXq3w6JuJcBuTQ-EOH--59" value="&lt;font style=&quot;font-size: 8px;&quot;&gt;MAPLIST&lt;/font&gt;" style="text;html=1;strokeColor=none;fillColor=none;align=center;verticalAlign=middle;whiteSpace=wrap;rounded=0;" vertex="1" parent="1">
          <mxGeometry x="92.5" y="525" width="30" height="15" as="geometry" />
        </mxCell>
        <mxCell id="JtXq3w6JuJcBuTQ-EOH--60" value="" style="verticalLabelPosition=bottom;html=1;verticalAlign=top;align=center;strokeColor=none;fillColor=#00BEF2;shape=mxgraph.azure.cloud_services_configuration_file;pointerEvents=1;" vertex="1" parent="1">
          <mxGeometry x="630.995" y="702.6" width="23.75" height="25" as="geometry" />
        </mxCell>
        <mxCell id="JtXq3w6JuJcBuTQ-EOH--61" value="&lt;font style=&quot;font-size: 8px;&quot;&gt;WEAPONS/&lt;/font&gt;" style="text;html=1;strokeColor=none;fillColor=none;align=center;verticalAlign=middle;whiteSpace=wrap;rounded=0;" vertex="1" parent="1">
          <mxGeometry x="578.49" y="732.5" width="30" height="15" as="geometry" />
        </mxCell>
        <mxCell id="JtXq3w6JuJcBuTQ-EOH--62" value="" style="verticalLabelPosition=bottom;html=1;verticalAlign=top;align=center;strokeColor=none;fillColor=#00BEF2;shape=mxgraph.azure.cloud_services_configuration_file;pointerEvents=1;" vertex="1" parent="1">
          <mxGeometry x="269.995" y="700" width="23.75" height="25" as="geometry" />
        </mxCell>
        <mxCell id="JtXq3w6JuJcBuTQ-EOH--63" value="&lt;font style=&quot;font-size: 8px;&quot;&gt;CHARACTERS/&lt;/font&gt;" style="text;html=1;strokeColor=none;fillColor=none;align=center;verticalAlign=middle;whiteSpace=wrap;rounded=0;" vertex="1" parent="1">
          <mxGeometry x="315" y="730" width="30" height="15" as="geometry" />
        </mxCell>
        <mxCell id="JtXq3w6JuJcBuTQ-EOH--64" value="" style="image;sketch=0;aspect=fixed;html=1;points=[];align=center;fontSize=12;image=img/lib/mscae/Service_Bus_Relay.svg;" vertex="1" parent="1">
          <mxGeometry x="82.5" y="550" width="50" height="50" as="geometry" />
        </mxCell>
        <mxCell id="JtXq3w6JuJcBuTQ-EOH--65" value="MapManager" style="text;html=1;strokeColor=none;fillColor=none;align=center;verticalAlign=middle;whiteSpace=wrap;rounded=0;" vertex="1" parent="1">
          <mxGeometry x="77.5" y="610" width="60" height="30" as="geometry" />
        </mxCell>
        <mxCell id="JtXq3w6JuJcBuTQ-EOH--66" value="" style="image;sketch=0;aspect=fixed;html=1;points=[];align=center;fontSize=12;image=img/lib/mscae/Service_Bus_Relay.svg;" vertex="1" parent="1">
          <mxGeometry x="665" y="450" width="50" height="50" as="geometry" />
        </mxCell>
        <mxCell id="JtXq3w6JuJcBuTQ-EOH--67" value="MAINCAMERA" style="text;html=1;strokeColor=none;fillColor=none;align=center;verticalAlign=middle;whiteSpace=wrap;rounded=0;" vertex="1" parent="1">
          <mxGeometry x="660" y="500" width="60" height="30" as="geometry" />
        </mxCell>
        <mxCell id="JtXq3w6JuJcBuTQ-EOH--69" value="gameMap" style="text;whiteSpace=wrap;html=1;" vertex="1" parent="1">
          <mxGeometry x="25" y="888.4" width="40" height="20" as="geometry" />
        </mxCell>
        <mxCell id="JtXq3w6JuJcBuTQ-EOH--71" value="" style="verticalLabelPosition=bottom;html=1;verticalAlign=top;align=center;strokeColor=#A50040;fillColor=#d80073;shape=mxgraph.floorplan.doorLeft;labelBackgroundColor=#ffffff;strokeWidth=2;shadow=0;dashed=0;fontColor=#ffffff;" vertex="1" parent="1">
          <mxGeometry x="142.5" y="835.9" width="47.5" height="50" as="geometry" />
        </mxCell>
        <mxCell id="JtXq3w6JuJcBuTQ-EOH--72" value="Doors" style="text;whiteSpace=wrap;html=1;" vertex="1" parent="1">
          <mxGeometry x="145" y="893.4" width="40" height="20" as="geometry" />
        </mxCell>
        <mxCell id="JtXq3w6JuJcBuTQ-EOH--75" value="" style="verticalLabelPosition=bottom;html=1;verticalAlign=top;align=center;strokeColor=none;fillColor=#00BEF2;shape=mxgraph.azure.script_file;pointerEvents=1;" vertex="1" parent="1">
          <mxGeometry x="317" y="888.5200000000002" width="22" height="30" as="geometry" />
        </mxCell>
        <mxCell id="JtXq3w6JuJcBuTQ-EOH--76" value="&lt;font style=&quot;font-size: 8px;&quot;&gt;PLAYERINPUT&lt;/font&gt;" style="text;html=1;strokeColor=none;fillColor=none;align=center;verticalAlign=middle;whiteSpace=wrap;rounded=0;" vertex="1" parent="1">
          <mxGeometry x="315.25" y="918.5200000000002" width="30" height="15" as="geometry" />
        </mxCell>
        <mxCell id="JtXq3w6JuJcBuTQ-EOH--77" value="" style="verticalLabelPosition=bottom;html=1;verticalAlign=top;align=center;strokeColor=none;fillColor=#00BEF2;shape=mxgraph.azure.script_file;pointerEvents=1;" vertex="1" parent="1">
          <mxGeometry x="615.1299999999999" y="889.07" width="24" height="30" as="geometry" />
        </mxCell>
        <mxCell id="JtXq3w6JuJcBuTQ-EOH--78" value="&lt;font style=&quot;font-size: 8px;&quot;&gt;ENNEMIAGENT&lt;/font&gt;" style="text;html=1;strokeColor=none;fillColor=none;align=center;verticalAlign=middle;whiteSpace=wrap;rounded=0;" vertex="1" parent="1">
          <mxGeometry x="613.3799999999999" y="919.07" width="30" height="15" as="geometry" />
        </mxCell>
        <mxCell id="JtXq3w6JuJcBuTQ-EOH--80" value="" style="verticalLabelPosition=bottom;html=1;verticalAlign=top;align=center;strokeColor=none;fillColor=#00BEF2;shape=mxgraph.azure.user;" vertex="1" parent="1">
          <mxGeometry x="375.88" y="879.8700000000001" width="37.24" height="39.2" as="geometry" />
        </mxCell>
        <mxCell id="JtXq3w6JuJcBuTQ-EOH--81" value="&lt;font style=&quot;font-size: 8px;&quot;&gt;CHARACTER&lt;/font&gt;" style="text;html=1;strokeColor=none;fillColor=none;align=center;verticalAlign=middle;whiteSpace=wrap;rounded=0;" vertex="1" parent="1">
          <mxGeometry x="380" y="919.0700000000002" width="30" height="15" as="geometry" />
        </mxCell>
        <mxCell id="JtXq3w6JuJcBuTQ-EOH--82" value="&lt;font style=&quot;font-size: 8px;&quot;&gt;CHARACTER&lt;/font&gt;" style="text;html=1;strokeColor=none;fillColor=none;align=center;verticalAlign=middle;whiteSpace=wrap;rounded=0;" vertex="1" parent="1">
          <mxGeometry x="549.8199999999999" y="923.1500000000001" width="30" height="15" as="geometry" />
        </mxCell>
        <mxCell id="JtXq3w6JuJcBuTQ-EOH--84" value="" style="shape=image;html=1;verticalAlign=top;verticalLabelPosition=bottom;labelBackgroundColor=#ffffff;imageAspect=0;aspect=fixed;image=https://cdn4.iconfinder.com/data/icons/game-of-thrones-4/64/game_of_thrones_game_thrones_series_ice_sword_weapon-128.png" vertex="1" parent="1">
          <mxGeometry x="675" y="829.27" width="49.87" height="49.87" as="geometry" />
        </mxCell>
        <mxCell id="JtXq3w6JuJcBuTQ-EOH--85" value="&lt;font style=&quot;font-size: 8px;&quot;&gt;WEAPON&lt;/font&gt;" style="text;html=1;strokeColor=none;fillColor=none;align=center;verticalAlign=middle;whiteSpace=wrap;rounded=0;" vertex="1" parent="1">
          <mxGeometry x="684.07" y="879.69" width="30" height="15" as="geometry" />
        </mxCell>
        <mxCell id="JtXq3w6JuJcBuTQ-EOH--22" value="" style="verticalLabelPosition=bottom;html=1;verticalAlign=top;align=center;strokeColor=none;fillColor=#00BEF2;shape=mxgraph.azure.user;" vertex="1" parent="1">
          <mxGeometry x="546.25" y="883.95" width="37.24" height="39.2" as="geometry" />
        </mxCell>
        <mxCell id="JtXq3w6JuJcBuTQ-EOH--87" value="Ennemis" style="text;whiteSpace=wrap;html=1;" vertex="1" parent="1">
          <mxGeometry x="555.6299999999999" y="803.1500000000001" width="40" height="20" as="geometry" />
        </mxCell>
        <mxCell id="JtXq3w6JuJcBuTQ-EOH--89" value="Player" style="text;whiteSpace=wrap;html=1;" vertex="1" parent="1">
          <mxGeometry x="340" y="803.1500000000001" width="40" height="20" as="geometry" />
        </mxCell>
        <mxCell id="JtXq3w6JuJcBuTQ-EOH--92" value="&lt;h1&gt;&lt;font style=&quot;font-size: 12px;&quot;&gt;Modules character&lt;/font&gt;&lt;/h1&gt;" style="text;html=1;strokeColor=none;fillColor=none;spacing=5;spacingTop=-20;whiteSpace=wrap;overflow=hidden;rounded=0;" vertex="1" parent="1">
          <mxGeometry x="437.18" y="923.1500000000001" width="130" height="30" as="geometry" />
        </mxCell>
        <mxCell id="JtXq3w6JuJcBuTQ-EOH--93" value="&lt;h1&gt;&lt;font style=&quot;font-size: 12px;&quot;&gt;Modules player&lt;/font&gt;&lt;/h1&gt;" style="text;html=1;strokeColor=none;fillColor=none;spacing=5;spacingTop=-20;whiteSpace=wrap;overflow=hidden;rounded=0;" vertex="1" parent="1">
          <mxGeometry x="210" y="822.7700000000001" width="130" height="30" as="geometry" />
        </mxCell>
        <mxCell id="JtXq3w6JuJcBuTQ-EOH--94" style="edgeStyle=orthogonalEdgeStyle;rounded=0;orthogonalLoop=1;jettySize=auto;html=1;exitX=0.5;exitY=1;exitDx=0;exitDy=0;" edge="1" parent="1" source="JtXq3w6JuJcBuTQ-EOH--92" target="JtXq3w6JuJcBuTQ-EOH--92">
          <mxGeometry relative="1" as="geometry" />
        </mxCell>
        <mxCell id="JtXq3w6JuJcBuTQ-EOH--95" value="&lt;font style=&quot;font-size: 8px;&quot;&gt;Controller&amp;nbsp;&lt;br&gt;Fighter&lt;br&gt;WeaponSlot&lt;br&gt;Attack&lt;br&gt;Animator&lt;br&gt;Sprites&lt;br&gt;Sound&lt;br&gt;Transform&lt;/font&gt;" style="text;html=1;strokeColor=none;fillColor=none;align=center;verticalAlign=middle;whiteSpace=wrap;rounded=0;" vertex="1" parent="1">
          <mxGeometry x="464.73" y="1004.45" width="60" height="30" as="geometry" />
        </mxCell>
        <mxCell id="JtXq3w6JuJcBuTQ-EOH--96" value="&lt;font style=&quot;font-size: 8px;&quot;&gt;Booster&lt;br&gt;PlayerUI&lt;br&gt;PointsCounter&lt;/font&gt;" style="text;html=1;strokeColor=none;fillColor=none;align=center;verticalAlign=middle;whiteSpace=wrap;rounded=0;" vertex="1" parent="1">
          <mxGeometry x="231.31" y="859.07" width="60" height="30" as="geometry" />
        </mxCell>
        <mxCell id="JtXq3w6JuJcBuTQ-EOH--97" value="&lt;h1&gt;&lt;font style=&quot;font-size: 12px;&quot;&gt;Modules Weapon&lt;/font&gt;&lt;/h1&gt;" style="text;html=1;strokeColor=none;fillColor=none;spacing=5;spacingTop=-20;whiteSpace=wrap;overflow=hidden;rounded=0;" vertex="1" parent="1">
          <mxGeometry x="738.63" y="784.3200000000002" width="130" height="30" as="geometry" />
        </mxCell>
        <mxCell id="JtXq3w6JuJcBuTQ-EOH--98" value="&lt;font style=&quot;font-size: 8px;&quot;&gt;HeldSlot&lt;br&gt;HitBox&lt;br&gt;WeaponAnimator&lt;br&gt;Bullets&lt;br&gt;Sprites&lt;br&gt;Sound&lt;br&gt;Transform&lt;/font&gt;" style="text;html=1;strokeColor=none;fillColor=none;align=center;verticalAlign=middle;whiteSpace=wrap;rounded=0;" vertex="1" parent="1">
          <mxGeometry x="759.93" y="858.5200000000001" width="60" height="30" as="geometry" />
        </mxCell>
        <mxCell id="JtXq3w6JuJcBuTQ-EOH--103" value="" style="image;sketch=0;aspect=fixed;html=1;points=[];align=center;fontSize=12;image=img/lib/mscae/Service_Bus_Relay.svg;" vertex="1" parent="1">
          <mxGeometry x="75" y="710" width="50" height="50" as="geometry" />
        </mxCell>
        <mxCell id="JtXq3w6JuJcBuTQ-EOH--104" value="SoundManager" style="text;html=1;strokeColor=none;fillColor=none;align=center;verticalAlign=middle;whiteSpace=wrap;rounded=0;" vertex="1" parent="1">
          <mxGeometry x="70" y="760" width="60" height="30" as="geometry" />
        </mxCell>
        <mxCell id="JtXq3w6JuJcBuTQ-EOH--105" value="" style="image;sketch=0;aspect=fixed;html=1;points=[];align=center;fontSize=12;image=img/lib/mscae/Service_Bus_Relay.svg;" vertex="1" parent="1">
          <mxGeometry x="689.07" y="560" width="50" height="50" as="geometry" />
        </mxCell>
        <mxCell id="JtXq3w6JuJcBuTQ-EOH--106" value="CinematicManager" style="text;html=1;strokeColor=none;fillColor=none;align=center;verticalAlign=middle;whiteSpace=wrap;rounded=0;" vertex="1" parent="1">
          <mxGeometry x="684.07" y="610" width="60" height="30" as="geometry" />
        </mxCell>
        <mxCell id="JtXq3w6JuJcBuTQ-EOH--107" value="" style="image;sketch=0;aspect=fixed;html=1;points=[];align=center;fontSize=12;image=img/lib/mscae/Service_Bus_Relay.svg;" vertex="1" parent="1">
          <mxGeometry x="644.13" y="275" width="50" height="50" as="geometry" />
        </mxCell>
        <mxCell id="JtXq3w6JuJcBuTQ-EOH--108" value="UIManager" style="text;html=1;strokeColor=none;fillColor=none;align=center;verticalAlign=middle;whiteSpace=wrap;rounded=0;" vertex="1" parent="1">
          <mxGeometry x="639.13" y="325" width="60" height="30" as="geometry" />
        </mxCell>
        <mxCell id="JtXq3w6JuJcBuTQ-EOH--109" value="" style="shape=image;html=1;verticalAlign=top;verticalLabelPosition=bottom;labelBackgroundColor=#ffffff;imageAspect=0;aspect=fixed;image=https://cdn2.iconfinder.com/data/icons/vivid/48/controller-128.png" vertex="1" parent="1">
          <mxGeometry x="369.51" y="1120" width="128" height="128" as="geometry" />
        </mxCell>
        <mxCell id="JtXq3w6JuJcBuTQ-EOH--110" value="&lt;h1&gt;&lt;font style=&quot;font-size: 12px;&quot;&gt;Modules UI&lt;/font&gt;&lt;/h1&gt;" style="text;html=1;strokeColor=none;fillColor=none;spacing=5;spacingTop=-20;whiteSpace=wrap;overflow=hidden;rounded=0;" vertex="1" parent="1">
          <mxGeometry x="850" y="570.0000000000001" width="130" height="30" as="geometry" />
        </mxCell>
        <mxCell id="JtXq3w6JuJcBuTQ-EOH--111" value="&lt;font style=&quot;font-size: 9px;&quot;&gt;ColoredBar&lt;br&gt;CapacityButtons&lt;br&gt;MenuUIButtons&lt;/font&gt;" style="text;html=1;strokeColor=none;fillColor=none;align=center;verticalAlign=middle;whiteSpace=wrap;rounded=0;" vertex="1" parent="1">
          <mxGeometry x="851.3" y="607.1000000000001" width="60" height="30" as="geometry" />
        </mxCell>
        <mxCell id="JtXq3w6JuJcBuTQ-EOH--112" value="" style="image;aspect=fixed;perimeter=ellipsePerimeter;html=1;align=center;shadow=0;dashed=0;spacingTop=3;image=img/lib/active_directory/folder.svg;" vertex="1" parent="1">
          <mxGeometry x="583.49" y="702.6" width="20" height="27.4" as="geometry" />
        </mxCell>
        <mxCell id="JtXq3w6JuJcBuTQ-EOH--114" value="&lt;font style=&quot;font-size: 8px;&quot;&gt;Sword&lt;/font&gt;" style="text;html=1;strokeColor=none;fillColor=none;align=center;verticalAlign=middle;whiteSpace=wrap;rounded=0;" vertex="1" parent="1">
          <mxGeometry x="627.87" y="732.5" width="30" height="15" as="geometry" />
        </mxCell>
        <mxCell id="JtXq3w6JuJcBuTQ-EOH--117" value="" style="verticalLabelPosition=bottom;html=1;verticalAlign=top;align=center;strokeColor=none;fillColor=#00BEF2;shape=mxgraph.azure.cloud_services_configuration_file;pointerEvents=1;" vertex="1" parent="1">
          <mxGeometry x="670.385" y="703.8000000000001" width="23.75" height="25" as="geometry" />
        </mxCell>
        <mxCell id="JtXq3w6JuJcBuTQ-EOH--118" value="&lt;font style=&quot;font-size: 8px;&quot;&gt;Axe...&lt;/font&gt;" style="text;html=1;strokeColor=none;fillColor=none;align=center;verticalAlign=middle;whiteSpace=wrap;rounded=0;" vertex="1" parent="1">
          <mxGeometry x="670.39" y="732.5" width="30" height="15" as="geometry" />
        </mxCell>
        <mxCell id="JtXq3w6JuJcBuTQ-EOH--119" value="" style="image;aspect=fixed;perimeter=ellipsePerimeter;html=1;align=center;shadow=0;dashed=0;spacingTop=3;image=img/lib/active_directory/folder.svg;" vertex="1" parent="1">
          <mxGeometry x="319" y="697.6" width="20" height="27.4" as="geometry" />
        </mxCell>
        <mxCell id="JtXq3w6JuJcBuTQ-EOH--120" value="&lt;font style=&quot;font-size: 8px;&quot;&gt;Knight&lt;/font&gt;" style="text;html=1;strokeColor=none;fillColor=none;align=center;verticalAlign=middle;whiteSpace=wrap;rounded=0;" vertex="1" parent="1">
          <mxGeometry x="266.87" y="727.6" width="30" height="15" as="geometry" />
        </mxCell>
        <mxCell id="JtXq3w6JuJcBuTQ-EOH--122" value="" style="verticalLabelPosition=bottom;html=1;verticalAlign=top;align=center;strokeColor=none;fillColor=#00BEF2;shape=mxgraph.azure.cloud_services_configuration_file;pointerEvents=1;" vertex="1" parent="1">
          <mxGeometry x="234.435" y="700" width="23.75" height="25" as="geometry" />
        </mxCell>
        <mxCell id="JtXq3w6JuJcBuTQ-EOH--123" value="&lt;font style=&quot;font-size: 8px;&quot;&gt;Mage...&lt;/font&gt;" style="text;html=1;strokeColor=none;fillColor=none;align=center;verticalAlign=middle;whiteSpace=wrap;rounded=0;" vertex="1" parent="1">
          <mxGeometry x="231.31" y="727.6" width="30" height="15" as="geometry" />
        </mxCell>
        <mxCell id="JtXq3w6JuJcBuTQ-EOH--125" value="" style="sketch=0;outlineConnect=0;fontColor=#ffffff;fillColor=#d80073;strokeColor=#A50040;dashed=0;verticalLabelPosition=bottom;verticalAlign=top;align=center;html=1;fontSize=12;fontStyle=0;aspect=fixed;shape=mxgraph.aws4.location_service_map;" vertex="1" parent="1">
          <mxGeometry x="25" y="840.4" width="48" height="48" as="geometry" />
        </mxCell>
        <mxCell id="JtXq3w6JuJcBuTQ-EOH--126" value="" style="verticalLabelPosition=bottom;verticalAlign=top;html=1;shadow=0;dashed=0;strokeWidth=1;shape=mxgraph.android.tab2;strokeColor=#A50040;direction=north;fillColor=#d80073;fontColor=#ffffff;" vertex="1" parent="1">
          <mxGeometry x="930" y="825.91" width="54.37" height="36.6" as="geometry" />
        </mxCell>
        <mxCell id="JtXq3w6JuJcBuTQ-EOH--127" value="UI&lt;br&gt;" style="text;whiteSpace=wrap;html=1;" vertex="1" parent="1">
          <mxGeometry x="949.9999999999998" y="862.5100000000001" width="40" height="20" as="geometry" />
        </mxCell>
      </root>
    </mxGraphModel>
  </diagram>
</mxfile>
